#!OML:ASF H:\Terrain\Patient Classification 1\Walking\liu\liu.ASF
:FULLY-SPECIFIED
:DEGREES
189
root 8.42481 16.9046 1.5796 6.58181 -1.92763 -5.2293
lowerback -4.75405 1.88797 2.78994
upperback -1.1247 2.31643 3.66559
thorax 1.46552 1.16354 2.3448
lowerneck -20.7127 -3.63642 -13.0646
upperneck 13.0769 -2.81538 9.26789
head 7.73998 -1.10871 4.89046
rclavicle -2.03009e-014 8.74653e-015
rhumerus -29.7409 16.9898 -83.2708
rradius 28.9223
rwrist -8.51158
rhand -28.4201 -26.1881
rfingers 7.12502
rthumb -1.79162 -56.1604
lclavicle -2.03009e-014 8.74653e-015
lhumerus -44.1137 -9.5453 93.1813
lradius 28.0866
lwrist 4.45055
lhand -16.7054 -29.3736
lfingers 7.12502
lthumb 9.51965 0.391328
rfemur -3.51532 2.60083 32.2779
rtibia 20.7948
rfoot -16.2622 3.84834
rtoes -9.90513
lfemur -39.6471 8.89926 -17.7753
ltibia 45.3761
lfoot -12.5713 12.5423
ltoes -8.45482
190
root 8.43343 16.8882 1.75733 6.75894 -2.14101 -5.3844
lowerback -4.63813 1.93806 2.89281
upperback -1.28764 2.39159 3.71015
thorax 1.23374 1.20018 2.32913
lowerneck -20.2919 -3.49773 -13.1039
upperneck 12.9428 -2.64801 9.17445
head 7.60397 -1.04718 4.88175
rclavicle -1.74931e-014 0
rhumerus -29.1329 17.7729 -83.1997
rradius 29.5863
rwrist -8.88394
rhand -28.3691 -26.8057
rfingers 7.12502
rthumb -1.74236 -56.7783
lclavicle -1.74931e-014 0
lhumerus -45.0616 -8.71019 92.6997
lradius 27.5004
lwrist 3.94649
lhand -12.3195 -26.3928
lfingers 7.12502
lthumb 13.7491 3.13293
rfemur -2.53395 2.49716 32.3347
rtibia 19.8551
rfoot -15.8377 4.24589
rtoes -11.4941
lfemur -39.847 8.64505 -17.678
ltibia 42.1521
lfoot -12.505 12.2313
ltoes -11.6538
191
root 8.44392 16.8871 1.94278 6.92738 -2.59157 -5.42712
lowerback -4.68578 2.17592 3.04515
upperback -1.43937 2.70746 3.58735
thorax 1.1111 1.35694 2.13339
lowerneck -19.4102 -3.43507 -13.1268
upperneck 12.5457 -2.65786 9.18227
head 7.3271 -1.06527 4.87665
rclavicle 1.9543e-014 -1.74931e-014
rhumerus -28.668 17.9963 -83.0385
rradius 30.3107
rwrist -9.05257
rhand -27.6992 -27.6451
rfingers 7.12502
rthumb -1.09536 -57.622
lclavicle 1.9543e-014 -1.74931e-014
lhumerus -45.9521 -7.79367 91.9188
lradius 26.7181
lwrist 2.95983
lhand -9.96198 -25.0947
lfingers 7.12502
lthumb 16.0203 4.26292
rfemur -1.46612 2.64363 32.2157
rtibia 18.8164
rfoot -15.3875 4.57068
rtoes -12.1962
lfemur -39.8467 8.32086 -17.5562
ltibia 38.6666
lfoot -12.0864 12.0947
ltoes -12.6938
192
root 8.45973 16.8893 2.13407 7.11972 -2.97643 -5.65396
lowerback -4.89109 2.40364 3.4819
upperback -1.47168 2.97971 3.51042
thorax 1.21448 1.49289 1.83556
lowerneck -18.9519 -3.4157 -13.1422
upperneck 12.2853 -2.67719 9.18392
head 7.16772 -1.08114 4.8714
rclavicle 4.47017e-014 2.46493e-014
rhumerus -28.003 18.4151 -82.842
rradius 30.9537
rwrist -9.34646
rhand -27.4428 -27.5915
rfingers 7.12502
rthumb -0.8478 -57.5696
lclavicle 4.47017e-014 2.46493e-014
lhumerus -46.679 -6.82806 91.101
lradius 26.015
lwrist 2.49076
lhand -12.6984 -28.8014
lfingers 7.12502
lthumb 13.3839 0.74871
rfemur -0.318605 2.82091 32.2835
rtibia 17.721
rfoot -15.2109 4.79377
rtoes -13.0236
lfemur -39.916 8.03706 -17.2457
ltibia 35.1956
lfoot -11.6052 11.8814
ltoes -11.3785
193
root 8.47154 16.8789 2.31381 7.24006 -3.14302 -6.19065
lowerback -4.95843 2.5224 4.0933
upperback -1.25394 3.08908 3.62233
thorax 1.50142 1.55124 1.62843
lowerneck -19.5485 -3.45853 -13.0899
upperneck 12.3321 -2.63927 8.99481
head 7.27466 -1.06559 4.80465
rclavicle 1.799e-014 2.10712e-014
rhumerus -26.6766 18.8704 -82.4143
rradius 31.3939
rwrist -9.64947
rhand -27.6118 -28.5914
rfingers 7.12502
rthumb -1.01102 -58.5687
lclavicle 1.799e-014 2.10712e-014
lhumerus -46.8219 -6.11812 90.4452
lradius 25.3532
lwrist 2.42452
lhand -18.3507 -36.7383
lfingers 7.12502
lthumb 7.93186 -6.90711
rfemur 0.874938 2.87191 32.7358
rtibia 16.4911
rfoot -15.0109 4.88257
rtoes -13.8878
lfemur -39.8606 7.38898 -16.4182
ltibia 31.7709
lfoot -11.4838 11.5319
ltoes -8.61462
194
root 8.48533 16.8762 2.4944 7.33662 -3.48009 -6.49646
lowerback -5.02852 2.6726 4.42192
upperback -0.891349 3.24489 3.69619
thorax 1.92896 1.6364 1.54883
lowerneck -20.7568 -3.57977 -13.0172
upperneck 12.542 -2.636 8.79337
head 7.54039 -1.05735 4.73053
rclavicle 2.16178e-015 -9.54166e-015
rhumerus -25.1552 19.2779 -81.8332
rradius 31.8503
rwrist -9.99487
rhand -27.4923 -31.1225
rfingers 7.12502
rthumb -0.895521 -61.1004
lclavicle 2.16178e-015 -9.54166e-015
lhumerus -46.512 -5.22245 89.6632
lradius 24.3678
lwrist 1.63584
lhand -13.5568 -25.7173
lfingers 7.12502
lthumb 12.5564 3.88542
rfemur 2.07894 2.6821 32.8212
rtibia 15.1251
rfoot -14.1753 5.31941
rtoes -14.0153
lfemur -39.5916 6.42802 -15.6416
ltibia 28.4912
lfoot -11.6262 11.5949
ltoes -7.34154
195
root 8.50253 16.883 2.6853 7.47263 -3.96152 -6.4816
lowerback -4.87602 2.7791 4.42544
upperback -1.22321 3.41593 3.70938
thorax 1.50163 1.71489 1.55223
lowerneck -20.1228 -3.41673 -12.9797
upperneck 12.4318 -2.47242 8.60537
head 7.37635 -1.00639 4.67627
rclavicle 1.06847e-015 6.36111e-015
rhumerus -25.1813 20.1236 -81.7571
rradius 32.5549
rwrist -10.64
rhand -27.6149 -30.835
rfingers 7.12502
rthumb -1.01397 -60.8123
lclavicle 1.06847e-015 6.36111e-015
lhumerus -47.6744 -3.94714 88.7941
lradius 23.4687
lwrist 0.507776
lhand -13.024 -26.0083
lfingers 7.12502
lthumb 13.07 3.56219
rfemur 3.3398 2.33978 32.4719
rtibia 13.7274
rfoot -13.102 5.9921
rtoes -14.4519
lfemur -39.3094 5.24546 -15.0516
ltibia 25.4337
lfoot -11.8144 12.1671
ltoes -8.59635
